<?xml version="1.0" standalone="no"?>
<!DOCTYPE svg PUBLIC "-//W3C//DTD SVG 20010904//EN"
 "http://www.w3.org/TR/2001/REC-SVG-20010904/DTD/svg10.dtd">
<svg version="1.0" xmlns="http://www.w3.org/2000/svg"
 width="1300.000000pt" height="1068.000000pt" viewBox="0 0 1300.000000 1068.000000"
 preserveAspectRatio="xMidYMid meet">

<g transform="translate(0.000000,1068.000000) scale(0.100000,-0.100000)"
fill="#000000" stroke="none">
<path d="M3777 7543 c-1208 -1209 -2197 -2202 -2197 -2208 0 -5 990 -1001
2201 -2212 l2202 -2202 1038 1038 1039 1038 0 1075 0 1076 63 16 c60 15 400
123 754 239 94 31 211 63 259 72 48 8 90 17 92 20 5 5 20 56 98 350 25 94 51
188 59 210 33 94 85 309 76 314 -5 4 -11 24 -13 46 l-3 40 -24 -65 c-13 -36
-30 -76 -38 -90 -7 -14 -33 -79 -58 -145 -69 -181 -76 -194 -116 -226 -85 -67
-303 -141 -554 -188 -158 -29 -216 -38 -430 -66 -60 -8 -122 -17 -137 -21
l-28 -6 0 1012 0 1012 -1035 1034 c-569 569 -1038 1034 -1042 1034 -5 0 -997
-989 -2206 -2197z m3131 887 l922 -921 0 -924 c0 -509 -3 -925 -7 -925 -5 0
-53 7 -108 16 -228 34 -519 28 -558 -10 -8 -8 -40 -13 -82 -14 -39 0 -171 -12
-295 -27 -208 -24 -244 -25 -478 -19 -139 4 -254 10 -256 13 -2 3 9 83 25 176
42 249 117 712 124 770 l6 50 -86 -90 c-47 -49 -88 -99 -90 -110 -3 -11 -25
-137 -50 -280 -71 -408 -62 -376 -120 -399 -72 -28 -196 -27 -251 1 -105 56
-167 187 -234 497 -15 72 -27 132 -25 134 1 1 17 -39 35 -90 105 -293 208
-458 317 -504 95 -41 173 10 188 121 10 73 32 196 54 305 11 52 25 132 31 178
10 64 19 91 39 114 l26 31 -26 -6 c-208 -52 -444 -11 -510 90 -52 78 -3 142
136 176 102 25 156 28 220 12 64 -16 208 -81 255 -115 36 -26 38 -26 81 13 78
68 106 166 118 407 5 96 8 177 5 181 -8 14 -233 159 -291 188 l-62 31 -11 -36
c-7 -20 -10 -52 -7 -71 7 -40 0 -63 -18 -63 -7 0 -40 25 -74 55 -34 30 -65 55
-69 55 -5 0 -32 -20 -61 -45 -76 -65 -76 -63 -9 37 41 61 65 76 98 58 27 -14
28 -14 30 35 3 70 6 68 -58 63 -50 -3 -66 -10 -108 -43 -27 -21 -54 -45 -60
-51 -6 -7 -44 -20 -85 -28 -76 -16 -249 -95 -302 -138 -28 -23 -28 -23 -30
-153 -1 -155 9 -193 69 -255 49 -51 74 -103 68 -140 -3 -14 2 -47 10 -74 l15
-48 -23 21 -23 21 -11 -25 c-14 -31 -16 -124 -3 -159 6 -15 6 -126 -1 -303
l-10 -278 -156 -153 -156 -153 142 -142 c78 -78 192 -194 254 -259 115 -119
119 -121 208 -132 14 -2 32 -6 40 -9 8 -2 110 -26 226 -52 305 -67 750 -185
652 -172 -15 2 -25 0 -22 -4 3 -5 11 -9 19 -9 8 0 18 -7 23 -17 10 -16 77 -31
177 -37 58 -4 120 -24 222 -72 39 -19 76 -34 82 -34 14 0 28 56 41 165 13 112
31 185 64 259 27 61 85 123 295 315 100 93 113 101 107 75 -20 -97 -32 -241
-27 -323 1 -21 3 -22 19 -10 14 11 14 10 -2 -8 -17 -21 -17 -24 -3 -47 25 -38
77 -50 186 -42 53 3 108 9 124 12 l27 6 0 -966 0 -966 -486 -485 -487 -486
-38 31 c-21 16 -41 30 -44 30 -3 0 -34 -13 -68 -29 -74 -35 -360 -151 -372
-151 -4 0 -1 10 7 23 8 12 45 77 81 144 37 67 78 139 92 159 38 56 34 64 -32
64 -107 1 -248 39 -513 140 -270 103 -520 242 -606 337 -39 43 -67 124 -99
280 -39 196 -101 701 -83 683 3 -3 21 -34 41 -70 89 -163 119 -216 131 -230 7
-8 50 -80 96 -160 127 -219 285 -453 363 -537 17 -18 45 -35 63 -39 27 -5 291
10 364 21 102 15 143 16 190 4 55 -14 71 -11 188 33 l62 24 -52 19 c-190 66
-524 287 -827 545 -68 58 -140 119 -161 135 -53 42 -402 369 -480 450 l-65 68
80 -57 c108 -76 409 -276 465 -308 25 -15 68 -42 95 -61 28 -19 88 -59 135
-88 47 -29 132 -83 190 -119 58 -37 121 -75 140 -86 19 -10 42 -26 51 -34 10
-8 33 -24 51 -34 27 -16 24 -11 -16 25 -27 24 -61 51 -75 60 -32 20 -301 250
-431 368 -52 48 -119 106 -147 130 -29 23 -53 48 -53 53 0 6 8 4 18 -4 29 -25
172 -106 352 -201 74 -39 151 -81 171 -93 20 -13 151 -80 290 -149 l254 -127
-150 154 c-458 467 -606 633 -589 659 11 18 135 70 204 85 36 7 98 14 139 14
68 0 73 1 60 18 -9 11 -5 10 11 -4 14 -12 41 -27 61 -33 51 -16 125 -119 220
-304 43 -83 79 -147 79 -142 2 38 29 257 32 260 2 2 12 -35 22 -83 11 -48 31
-139 46 -202 15 -63 47 -208 71 -323 24 -114 46 -207 50 -207 4 0 12 26 17 58
22 120 132 639 147 692 32 117 19 114 -76 -18 -34 -48 -66 -91 -71 -97 -6 -6
-7 22 -3 70 9 127 25 416 25 465 0 41 -3 47 -29 57 -26 9 -32 7 -57 -16 l-28
-26 23 27 23 26 -28 15 c-56 28 -413 167 -431 167 -15 0 -16 2 -3 11 12 8 11
9 -6 4 -37 -10 -1038 242 -1080 272 -41 29 -297 307 -436 473 -87 104 -120 95
-82 -20 148 -447 234 -753 234 -831 0 -143 -148 -461 -223 -479 -48 -12 -80
-141 -57 -227 50 -182 338 -763 616 -1242 30 -52 52 -96 49 -100 -4 -3 -36 10
-73 29 -131 69 -321 292 -449 530 -38 68 -70 129 -72 135 -2 5 -26 55 -54 110
-27 55 -69 147 -93 205 -24 58 -43 98 -44 90 0 -22 67 -282 94 -365 13 -38 56
-173 96 -300 81 -259 178 -557 244 -749 25 -72 44 -131 43 -133 -2 -1 -247
242 -545 540 l-543 543 51 108 c28 59 65 130 81 156 23 38 44 107 94 322 157
672 176 743 233 850 52 98 122 206 122 190 0 -8 -7 -68 -15 -135 -39 -325 -57
-735 -36 -831 6 -29 10 -24 90 95 173 253 254 376 288 434 35 59 35 61 30 145
-6 92 -35 234 -98 485 -60 239 -133 485 -144 485 -8 0 -119 -51 -270 -125
-205 -100 -306 -168 -336 -227 -62 -121 -130 -405 -214 -888 -14 -80 -31 -174
-39 -210 -10 -49 -123 -488 -139 -543 -3 -10 -1778 1765 -1777 1778 1 11 78
89 2122 2133 739 739 1348 1348 1353 1353 106 108 532 528 536 529 3 0 420
-414 927 -920z m-1567 503 c13 -16 12 -17 -3 -4 -10 7 -18 15 -18 17 0 8 8 3
21 -13z m699 -1637 c0 -2 -8 -10 -17 -17 -16 -13 -17 -12 -4 4 13 16 21 21 21
13z m-70 -70 c0 -2 -8 -10 -17 -17 -16 -13 -17 -12 -4 4 13 16 21 21 21 13z
m-65 -66 c-18 -19 -17 -20 14 -31 42 -15 35 -20 -11 -10 -24 6 -41 5 -49 -3
-9 -8 -10 -8 -5 2 5 8 -1 12 -16 13 -41 3 -172 -2 -203 -7 -29 -4 -29 -4 8 16
48 27 151 37 201 20 33 -10 40 -10 54 4 23 23 29 20 7 -4z m-65 -63 c0 -2 -12
-14 -27 -28 l-28 -24 24 28 c23 25 31 32 31 24z m-70 -21 c0 -2 -9 -6 -20 -9
-11 -3 -18 -1 -14 4 5 9 34 13 34 5z m-4049 -1833 c13 -16 12 -17 -3 -4 -10 7
-18 15 -18 17 0 8 8 3 21 -13z m70 -70 c13 -16 12 -17 -3 -4 -17 13 -22 21
-14 21 2 0 10 -8 17 -17z m4144 -403 c33 -33 57 -60 54 -60 -2 0 -31 27 -64
60 -33 33 -57 60 -54 60 2 0 31 -27 64 -60z m-3654 -87 c13 -16 12 -17 -3 -4
-10 7 -18 15 -18 17 0 8 8 3 21 -13z m3774 -33 c10 -11 16 -20 13 -20 -3 0
-13 9 -23 20 -10 11 -16 20 -13 20 3 0 13 -9 23 -20z m-3689 -52 l29 -33 -32
29 c-31 28 -38 36 -30 36 2 0 16 -15 33 -32z m3744 -3 c13 -14 21 -25 18 -25
-2 0 -15 11 -28 25 -13 14 -21 25 -18 25 2 0 15 -11 28 -25z m55 -55 c10 -11
16 -20 13 -20 -3 0 -13 9 -23 20 -10 11 -16 20 -13 20 3 0 13 -9 23 -20z m675
-34 c0 -2 -8 -10 -17 -17 -16 -13 -17 -12 -4 4 13 16 21 21 21 13z m-575 -66
c10 -11 16 -20 13 -20 -3 0 -13 9 -23 20 -10 11 -16 20 -13 20 3 0 13 -9 23
-20z m495 -14 c0 -2 -8 -10 -17 -17 -16 -13 -17 -12 -4 4 13 16 21 21 21 13z
m-40 -40 c0 -2 -8 -10 -17 -17 -16 -13 -17 -12 -4 4 13 16 21 21 21 13z m-40
-40 c0 -2 -8 -10 -17 -17 -16 -13 -17 -12 -4 4 13 16 21 21 21 13z m-40 -40
c0 -2 -8 -10 -17 -17 -16 -13 -17 -12 -4 4 13 16 21 21 21 13z m-40 -40 c0 -2
-8 -10 -17 -17 -16 -13 -17 -12 -4 4 13 16 21 21 21 13z m-3689 -213 c13 -16
12 -17 -3 -4 -17 13 -22 21 -14 21 2 0 10 -8 17 -17z m2839 -637 c0 -2 -8 -10
-17 -17 -16 -13 -17 -12 -4 4 13 16 21 21 21 13z m-199 -1983 c13 -16 12 -17
-3 -4 -10 7 -18 15 -18 17 0 8 8 3 21 -13z m40 -40 c13 -16 12 -17 -3 -4 -10
7 -18 15 -18 17 0 8 8 3 21 -13z m50 -50 c13 -16 12 -17 -3 -4 -10 7 -18 15
-18 17 0 8 8 3 21 -13z m85 -85 l29 -33 -32 29 c-31 28 -38 36 -30 36 2 0 16
-15 33 -32z m149 -148 c10 -11 16 -20 13 -20 -3 0 -13 9 -23 20 -10 11 -16 20
-13 20 3 0 13 -9 23 -20z m91 -92 l29 -33 -32 29 c-18 17 -33 31 -33 33 0 8 8
1 36 -29z"/>
<path d="M5574 8251 c-66 -16 -391 -247 -471 -334 -51 -55 -55 -74 -51 -252 3
-137 3 -139 21 -112 10 16 20 57 24 103 6 73 8 79 61 147 102 135 227 244 347
305 69 34 175 62 239 62 79 0 237 -40 318 -81 74 -37 175 -115 210 -161 54
-72 117 -216 103 -237 -2 -4 0 -13 5 -21 7 -12 12 -11 28 3 19 17 19 19 -1
105 -11 48 -22 94 -25 102 -2 8 -6 22 -7 32 -4 35 -72 133 -130 185 -70 64
-162 126 -178 120 -7 -3 -21 4 -33 14 -18 17 -42 20 -225 23 -112 3 -218 1
-235 -3z m592 -143 l29 -33 -32 29 c-31 28 -38 36 -30 36 2 0 16 -15 33 -32z
m75 -75 c13 -16 12 -17 -3 -4 -17 13 -22 21 -14 21 2 0 10 -8 17 -17z"/>
<path d="M5620 8084 c-181 -39 -348 -185 -429 -376 l-20 -47 52 35 c29 19 75
50 103 69 82 54 223 123 294 142 78 21 271 23 340 4 48 -14 247 -111 291 -142
15 -10 30 -19 34 -19 15 0 -66 102 -140 175 -85 85 -169 137 -259 161 -64 17
-182 17 -266 -2z"/>
<path d="M5660 7885 c-63 -13 -187 -58 -253 -91 -105 -53 -236 -164 -301 -254
-56 -78 -99 -299 -63 -328 13 -11 21 -8 54 21 73 66 238 191 310 234 45 28 92
47 129 54 74 14 89 21 142 73 41 39 46 41 100 40 68 -2 170 -36 194 -64 15
-18 198 -90 236 -92 6 -1 12 -5 12 -9 0 -15 59 -27 94 -19 63 14 86 35 86 79
0 84 -142 217 -336 314 -113 57 -258 72 -404 42z m232 -112 c43 -16 102 -52
96 -58 -2 -2 -30 3 -63 11 -33 8 -97 14 -141 15 -91 1 -126 -12 -219 -81 -66
-49 -103 -67 -160 -80 -67 -15 -66 -7 3 18 40 15 75 38 111 73 102 99 266 144
373 102z m277 -222 c47 -19 58 -27 43 -29 -35 -5 -113 25 -152 59 l-35 30 40
-17 c22 -9 69 -29 104 -43z"/>
<path d="M6411 7666 c-11 -13 -10 -21 8 -48 l21 -33 -1 30 c0 17 -4 38 -8 48
-6 17 -8 17 -20 3z"/>
<path d="M6359 7224 c0 -23 -7 -84 -20 -182 l-9 -74 77 -91 c42 -51 93 -110
113 -132 20 -22 55 -60 77 -84 l40 -44 19 74 c10 41 18 102 18 135 0 77 -17
104 -145 234 -52 52 -111 115 -131 139 -29 35 -38 40 -39 25z"/>
<path d="M5067 7185 c-32 -30 -47 -51 -43 -63 11 -39 18 -134 12 -167 -4 -19
-25 -55 -47 -82 -23 -25 -53 -65 -67 -87 -51 -80 -172 -337 -172 -365 0 -63
198 -325 289 -382 58 -37 78 -36 137 4 57 38 55 9 19 281 -14 104 -25 215 -25
247 0 39 -6 69 -19 91 -30 51 -50 143 -62 284 -12 138 -7 210 17 256 8 15 13
28 12 28 -2 0 -25 -21 -51 -45z"/>
<path d="M6256 6435 c3 -131 10 -248 16 -258 19 -36 172 -203 277 -303 l106
-101 202 -37 c112 -20 214 -36 227 -36 21 0 27 8 41 56 43 149 44 255 3 323
-12 22 -54 68 -93 102 -130 114 -419 324 -435 314 -4 -2 14 -75 40 -162 26
-87 51 -173 55 -191 l7 -33 -74 44 c-166 98 -228 142 -242 172 -8 17 -32 82
-55 147 -23 64 -50 136 -61 160 l-20 43 6 -240z"/>
<path d="M6328 4903 c7 -3 16 -2 19 1 4 3 -2 6 -13 5 -11 0 -14 -3 -6 -6z"/>
<path d="M6462 3269 c34 -29 197 -123 203 -117 4 3 -49 36 -205 126 -24 13
-23 13 2 -9z"/>
<path d="M10189 8163 c-91 -87 -106 -118 -119 -248 -5 -61 -10 -113 -10 -117
0 -18 60 31 75 61 15 32 15 35 -7 60 -12 14 -4 8 20 -14 40 -37 59 -61 27 -35
-13 10 -15 9 -15 -10 l0 -22 33 19 c17 10 47 18 64 18 41 0 41 2 50 188 4 112
1 127 -39 148 -15 8 -29 0 -79 -48z"/>
<path d="M10349 8128 c-2 -115 -11 -181 -29 -222 l-19 -45 57 -32 c31 -18 79
-48 107 -66 27 -18 53 -33 57 -33 18 0 109 197 108 234 0 6 -14 27 -30 46
l-29 35 -26 -55 -27 -55 6 72 c4 66 3 73 -17 86 -34 21 -54 26 -55 14 -1 -7
-10 -46 -21 -87 l-20 -75 0 53 c-1 40 -4 51 -13 46 -7 -4 -5 2 5 13 9 11 17
35 17 55 0 28 -5 37 -25 46 -40 18 -45 15 -46 -30z"/>
<path d="M10203 7817 l-41 -20 -6 -96 c-3 -53 -8 -179 -11 -281 -3 -102 -8
-216 -11 -255 -6 -90 2 -77 65 106 91 263 94 270 150 319 28 25 51 48 51 51 0
4 -19 2 -43 -3 -56 -12 -91 2 -117 44 -26 44 -25 51 6 44 83 -21 199 -17 192
7 -6 16 -158 107 -177 106 -9 -1 -35 -10 -58 -22z"/>
<path d="M10069 7735 c-15 -8 -30 -22 -33 -32 -5 -13 0 -11 21 7 16 14 12 7
-9 -15 -35 -38 -100 -164 -271 -530 -36 -77 -108 -228 -161 -335 -52 -107 -93
-196 -91 -198 2 -2 34 14 72 36 63 36 246 137 388 212 33 18 64 36 69 40 7 7
21 203 51 713 4 64 3 117 -2 117 -4 -1 -20 -7 -34 -15z"/>
<path d="M10810 6469 c0 -212 -3 -603 -7 -869 l-6 -483 104 6 c119 8 335 -6
440 -28 40 -9 73 -14 74 -13 2 3 -85 263 -438 1317 -80 239 -151 439 -157 445
-7 7 -10 -107 -10 -375z"/>
<path d="M10721 6608 c-85 -290 -165 -556 -235 -783 -35 -115 -92 -304 -126
-420 -34 -115 -73 -245 -86 -289 -14 -43 -23 -80 -21 -82 2 -2 46 7 98 20 52
14 158 32 235 41 76 9 140 18 140 18 2 2 19 492 45 1272 6 182 9 347 7 368 -2
31 -12 6 -57 -145z"/>
<path d="M9721 6481 c-118 -47 -216 -92 -218 -98 -2 -6 12 -53 32 -105 20 -51
55 -145 77 -208 43 -122 87 -224 94 -217 7 6 244 702 244 714 0 7 -23 -2 -229
-86z"/>
<path d="M9456 5998 c-21 -128 -49 -287 -62 -352 -13 -66 -22 -121 -21 -123 7
-6 223 50 233 61 6 6 25 53 43 104 28 83 30 95 18 120 -8 15 -47 116 -87 225
-40 108 -76 197 -79 197 -4 0 -24 -105 -45 -232z"/>
<path d="M9710 5624 c-37 -105 -72 -133 -240 -196 -63 -23 -118 -46 -121 -51
-4 -5 -19 -82 -33 -171 -14 -88 -46 -278 -71 -421 -24 -143 -45 -262 -45 -265
0 -3 35 -2 78 1 42 4 173 11 291 15 177 6 213 5 206 -6 -6 -10 -4 -12 10 -6
30 11 224 7 303 -7 39 -7 72 -13 72 -12 0 8 -159 431 -186 495 -20 46 -51 125
-69 175 -68 187 -167 451 -175 465 -7 12 -11 8 -20 -16z"/>
<path d="M9262 5343 c-5 -10 -30 -90 -56 -178 -25 -88 -59 -203 -75 -255 -87
-286 -128 -430 -122 -430 15 0 153 28 156 32 5 5 125 812 125 840 0 15 -19 8
-28 -9z"/>
<path d="M10605 5034 c-128 -11 -290 -54 -282 -77 2 -6 41 -30 88 -54 106 -55
227 -81 409 -89 242 -11 403 17 499 87 71 53 45 90 -77 109 -143 22 -488 35
-637 24z"/>
<path d="M9243 4489 c-61 -18 -46 -68 44 -149 66 -60 205 -131 303 -156 79
-20 159 -11 320 35 221 64 342 157 267 205 -22 15 -259 43 -546 66 -161 12
-344 12 -388 -1z"/>
</g>
</svg>
